<mxfile host="app.diagrams.net" agent="Mozilla/5.0 (Windows NT 10.0; Win64; x64) AppleWebKit/537.36 (KHTML, like Gecko) Chrome/136.0.0.0 Safari/537.36" version="26.2.12">
  <diagram name="Page-1" id="GJGBsaqQXe3ZU5108EGd">
    <mxGraphModel dx="1044" dy="527" grid="1" gridSize="10" guides="1" tooltips="1" connect="1" arrows="1" fold="1" page="1" pageScale="1" pageWidth="850" pageHeight="1100" math="0" shadow="0">
      <root>
        <mxCell id="0" />
        <mxCell id="1" parent="0" />
        <mxCell id="jIif11xaUqzvl8PaufJ1-4" style="edgeStyle=orthogonalEdgeStyle;rounded=0;orthogonalLoop=1;jettySize=auto;html=1;entryX=0;entryY=0.5;entryDx=0;entryDy=0;" edge="1" parent="1" source="jIif11xaUqzvl8PaufJ1-1" target="jIif11xaUqzvl8PaufJ1-2">
          <mxGeometry relative="1" as="geometry" />
        </mxCell>
        <mxCell id="jIif11xaUqzvl8PaufJ1-1" value="Git&amp;nbsp;" style="rounded=1;whiteSpace=wrap;html=1;" vertex="1" parent="1">
          <mxGeometry x="70" y="180" width="60" height="40" as="geometry" />
        </mxCell>
        <mxCell id="jIif11xaUqzvl8PaufJ1-5" style="edgeStyle=elbowEdgeStyle;rounded=0;orthogonalLoop=1;jettySize=auto;html=1;elbow=vertical;entryX=0;entryY=0.5;entryDx=0;entryDy=0;" edge="1" parent="1" source="jIif11xaUqzvl8PaufJ1-2" target="jIif11xaUqzvl8PaufJ1-3">
          <mxGeometry relative="1" as="geometry">
            <mxPoint x="230" y="110" as="targetPoint" />
            <Array as="points">
              <mxPoint x="235" y="120" />
            </Array>
          </mxGeometry>
        </mxCell>
        <mxCell id="jIif11xaUqzvl8PaufJ1-16" style="edgeStyle=orthogonalEdgeStyle;rounded=0;orthogonalLoop=1;jettySize=auto;html=1;" edge="1" parent="1" source="jIif11xaUqzvl8PaufJ1-2">
          <mxGeometry relative="1" as="geometry">
            <mxPoint x="235" y="300" as="targetPoint" />
          </mxGeometry>
        </mxCell>
        <mxCell id="jIif11xaUqzvl8PaufJ1-2" value="Github-actions" style="shape=parallelogram;perimeter=parallelogramPerimeter;whiteSpace=wrap;html=1;fixedSize=1;" vertex="1" parent="1">
          <mxGeometry x="200" y="180" width="70" height="40" as="geometry" />
        </mxCell>
        <mxCell id="jIif11xaUqzvl8PaufJ1-10" value="" style="edgeStyle=orthogonalEdgeStyle;rounded=0;orthogonalLoop=1;jettySize=auto;html=1;" edge="1" parent="1" source="jIif11xaUqzvl8PaufJ1-3" target="jIif11xaUqzvl8PaufJ1-8">
          <mxGeometry relative="1" as="geometry" />
        </mxCell>
        <mxCell id="jIif11xaUqzvl8PaufJ1-3" value="Docker" style="ellipse;whiteSpace=wrap;html=1;" vertex="1" parent="1">
          <mxGeometry x="280" y="90" width="90" height="50" as="geometry" />
        </mxCell>
        <mxCell id="jIif11xaUqzvl8PaufJ1-7" value="CI" style="text;html=1;align=center;verticalAlign=middle;resizable=0;points=[];autosize=1;strokeColor=none;fillColor=none;" vertex="1" parent="1">
          <mxGeometry x="195" y="110" width="40" height="30" as="geometry" />
        </mxCell>
        <mxCell id="jIif11xaUqzvl8PaufJ1-11" value="" style="edgeStyle=orthogonalEdgeStyle;rounded=0;orthogonalLoop=1;jettySize=auto;html=1;" edge="1" parent="1" source="jIif11xaUqzvl8PaufJ1-8" target="jIif11xaUqzvl8PaufJ1-9">
          <mxGeometry relative="1" as="geometry" />
        </mxCell>
        <mxCell id="jIif11xaUqzvl8PaufJ1-8" value="trivy" style="ellipse;whiteSpace=wrap;html=1;" vertex="1" parent="1">
          <mxGeometry x="430" y="90" width="90" height="50" as="geometry" />
        </mxCell>
        <mxCell id="jIif11xaUqzvl8PaufJ1-9" value="Docker Hub Registry" style="ellipse;whiteSpace=wrap;html=1;" vertex="1" parent="1">
          <mxGeometry x="580" y="90" width="90" height="50" as="geometry" />
        </mxCell>
        <mxCell id="jIif11xaUqzvl8PaufJ1-18" style="edgeStyle=orthogonalEdgeStyle;rounded=0;orthogonalLoop=1;jettySize=auto;html=1;" edge="1" parent="1" source="jIif11xaUqzvl8PaufJ1-12">
          <mxGeometry relative="1" as="geometry">
            <mxPoint x="240" y="300" as="targetPoint" />
          </mxGeometry>
        </mxCell>
        <mxCell id="jIif11xaUqzvl8PaufJ1-12" value="ARGO-CD" style="ellipse;whiteSpace=wrap;html=1;" vertex="1" parent="1">
          <mxGeometry x="280" y="270" width="100" height="60" as="geometry" />
        </mxCell>
        <mxCell id="jIif11xaUqzvl8PaufJ1-13" value="Kubernetes" style="ellipse;whiteSpace=wrap;html=1;" vertex="1" parent="1">
          <mxGeometry x="575" y="275" width="100" height="50" as="geometry" />
        </mxCell>
        <mxCell id="jIif11xaUqzvl8PaufJ1-19" value="CD&lt;div&gt;&lt;br&gt;&lt;/div&gt;" style="text;html=1;align=center;verticalAlign=middle;resizable=0;points=[];autosize=1;strokeColor=none;fillColor=none;" vertex="1" parent="1">
          <mxGeometry x="200" y="280" width="40" height="40" as="geometry" />
        </mxCell>
        <mxCell id="jIif11xaUqzvl8PaufJ1-22" value="" style="edgeStyle=none;orthogonalLoop=1;jettySize=auto;html=1;shape=flexArrow;rounded=1;startSize=8;endSize=8;" edge="1" parent="1">
          <mxGeometry width="100" relative="1" as="geometry">
            <mxPoint x="440" y="299.5" as="sourcePoint" />
            <mxPoint x="540" y="299.5" as="targetPoint" />
            <Array as="points" />
          </mxGeometry>
        </mxCell>
        <mxCell id="jIif11xaUqzvl8PaufJ1-23" value="SYNC" style="edgeLabel;html=1;align=center;verticalAlign=middle;resizable=0;points=[];" vertex="1" connectable="0" parent="jIif11xaUqzvl8PaufJ1-22">
          <mxGeometry x="0.504" y="-1" relative="1" as="geometry">
            <mxPoint x="-30" y="19" as="offset" />
          </mxGeometry>
        </mxCell>
      </root>
    </mxGraphModel>
  </diagram>
</mxfile>
